HIERARCHY
ROOT Hips
{
	OFFSET 0.000000 0.000000 0.000000
	CHANNELS 6 Xposition Yposition Zposition Zrotation Yrotation Xrotation 
	JOINT LHipJoint
	{
		OFFSET 0.000000 0.000000 0.000000
		CHANNELS 3 Zrotation Yrotation Xrotation
		JOINT LeftUpLeg
		{
			OFFSET 1.363060 -1.794630 0.839290
			CHANNELS 3 Zrotation Yrotation Xrotation
			JOINT LeftLeg
			{
				OFFSET 2.448110 -6.726130 0.000000
				CHANNELS 3 Zrotation Yrotation Xrotation
				JOINT LeftFoot
				{
					OFFSET 2.562200 -7.039590 0.000000
					CHANNELS 3 Zrotation Yrotation Xrotation
					JOINT LeftToeBase
					{
						OFFSET 0.157640 -0.433110 2.322550
						CHANNELS 3 Zrotation Yrotation Xrotation
						End Site
						{
							OFFSET 0.000000 0.000000 0.000000
						}
					}
				}
			}
		}
	}
	JOINT RHipJoint
	{
		OFFSET 0.000000 0.000000 0.000000
		CHANNELS 3 Zrotation Yrotation Xrotation
		JOINT RightUpLeg
		{
			OFFSET -1.305520 -1.794630 0.839290
			CHANNELS 3 Zrotation Yrotation Xrotation
			JOINT RightLeg
			{
				OFFSET -2.542530 -6.985550 0.000000
				CHANNELS 3 Zrotation Yrotation Xrotation
				JOINT RightFoot
				{
					OFFSET -2.568260 -7.056230 0.000000
					CHANNELS 3 Zrotation Yrotation Xrotation
					JOINT RightToeBase
					{
						OFFSET -0.164730 -0.452590 2.363150
						CHANNELS 3 Zrotation Yrotation Xrotation
						End Site
						{
							OFFSET 0.000000 0.000000 0.000000
						}
					}
				}
			}
		}
	}
}
MOTION
Frames: 16
Frame Time: 0.008333
1.212719 16.465646 -1.638040 -163.944813 86.615726 -144.817215 -11.827033 3.376121 -1.181572 -6.436757 -0.911643 1.163608 -0.561505 2.074980 28.472553 0.702879 1.675376 10.966154 0.320700 -0.000000 -90.107700 8.182334 1.103935 1.284810 3.682012 2.992344 -46.751656 2.417354 -1.348529 19.254134 0.647062 3.535181 10.594806 0.590400 0.000000 -56.283800
1.421789 16.469114 -1.665388 -159.856966 86.192943 -140.819948 -12.273584 3.392580 -1.218187 -5.479524 -0.156477 -0.149393 -0.334729 2.240826 31.143651 0.863379 1.899006 13.265889 0.342800 -0.000001 -88.899800 7.969053 1.006461 1.057733 4.436782 2.798891 -46.733495 2.366538 -1.516372 21.220318 0.591984 3.201102 10.306361 0.465100 -0.000000 -54.899700
1.626894 16.477244 -1.690274 -157.464627 85.657494 -138.528310 -12.665644 3.356836 -1.271966 -4.560312 0.645398 -1.562437 -0.120517 2.376966 33.897785 1.059195 2.395457 15.497923 0.468800 -0.000000 -86.326200 7.783954 0.904864 0.846166 5.159799 2.535742 -46.575721 2.333272 -1.649694 22.966914 0.518931 2.785906 9.557409 0.300500 0.000001 -54.031400
1.828278 16.489723 -1.712866 -156.236535 85.044568 -137.403163 -13.003964 3.279806 -1.337256 -3.694035 1.469870 -3.076402 0.068096 2.492610 36.719825 1.282339 3.224781 17.499850 0.751000 -0.000000 -82.374000 7.626775 0.805646 0.652093 5.841256 2.228433 -46.274212 2.317883 -1.746960 24.472043 0.428854 2.298380 8.446398 0.113700 0.000000 -53.627200
2.025990 16.506171 -1.731986 -156.113521 84.382910 -137.382131 -13.262453 3.174220 -1.409443 -2.961737 2.261738 -4.664706 0.224620 2.596276 39.575317 1.522878 4.452953 19.127689 1.242000 0.000000 -77.191500 7.520473 0.723117 0.474828 6.422682 1.854723 -45.849777 2.313779 -1.814899 25.752808 0.326431 1.792986 7.072450 -0.062200 0.000000 -53.589700
2.220471 16.526548 -1.748494 -156.705582 83.682437 -138.064178 -13.456408 3.048529 -1.482938 -2.358379 3.008048 -6.338480 0.351352 2.697734 42.443695 1.769685 6.055621 20.265080 1.939600 0.000000 -71.158200 7.453485 0.652648 0.319320 6.904325 1.440973 -45.305092 2.319850 -1.851889 26.777005 0.213174 1.272880 5.570656 -0.217400 -0.000000 -53.797500
2.411916 16.550771 -1.762280 -157.930257 82.954531 -139.361304 -13.578629 2.912055 -1.553784 -1.929547 3.673508 -8.082013 0.455183 2.801931 45.282007 2.015380 7.989127 20.860490 2.811900 -0.000000 -64.798900 7.434956 0.598491 0.185657 7.252500 0.977722 -44.662190 2.330264 -1.863466 27.549780 0.094670 0.770313 4.059559 -0.338500 0.000001 -54.144300
2.600621 16.578937 -1.774165 -159.595141 82.202432 -141.071305 -13.639722 2.770103 -1.616382 -1.680443 4.240150 -9.894069 0.545105 2.910330 48.051460 2.254939 10.149610 20.920190 3.781400 0.000000 -58.670000 7.458782 0.556366 0.075964 7.464950 0.477100 -43.936874 2.341747 -1.852036 28.061485 -0.024536 0.290520 2.655502 -0.427400 -0.000000 -54.538401
2.786789 16.611153 -1.784978 -161.562711 81.429613 -143.050048 -13.648890 2.626084 -1.666388 -1.616379 4.694170 -11.768108 0.628655 3.020768 50.712955 2.484783 12.410362 20.497136 4.753200 0.000000 -53.199700 7.519997 0.522777 -0.009631 7.542171 -0.053635 -43.147824 2.350976 -1.821113 28.314136 -0.139446 -0.162529 1.449720 -0.490600 0.000000 -54.921700
2.970476 16.647529 -1.795609 -163.711100 80.640882 -145.171835 -13.616551 2.481921 -1.701366 -1.733851 5.033447 -13.694885 0.710404 3.129250 53.230673 2.701189 14.638190 19.670670 5.633599 0.000000 -48.607101 7.612051 0.493972 -0.072474 7.492709 -0.607399 -42.311052 2.355526 -1.774066 28.317766 -0.245807 -0.588884 0.503072 -0.538100 0.000000 -55.269300
3.151752 16.688086 -1.806950 -165.932576 79.843552 -147.329765 -13.553081 2.338631 -1.721391 -2.020870 5.267819 -15.660459 0.791620 3.231474 55.570043 2.899440 16.709565 18.530979 6.346000 -0.000000 -44.922900 7.727440 0.466608 -0.115855 7.332552 -1.178226 -41.437171 2.354223 -1.713846 28.089492 -0.340760 -0.990577 -0.156989 -0.579500 0.000000 -55.582099
3.330494 16.732692 -1.819801 -168.135619 79.046809 -149.438542 -13.467756 2.196760 -1.729076 -2.458131 5.416528 -17.644343 0.870764 3.323817 57.696668 3.074116 18.523318 17.172712 6.842000 0.000000 -42.067900 7.858364 0.438207 -0.144999 7.083087 -1.760842 -40.529736 2.347217 -1.642806 27.651570 -0.423049 -1.369910 -0.535056 -0.622700 -0.000000 -55.876900
3.506580 16.781170 -1.834836 -170.244141 78.262141 -151.432944 -13.368177 2.056784 -1.728895 -3.020012 5.504708 -19.619251 0.944312 3.403717 59.576125 3.219526 20.005296 15.691835 7.104600 0.000000 -39.930200 7.997428 0.407111 -0.166834 6.768822 -2.351365 -39.584802 2.335794 -1.562836 27.029943 -0.492722 -1.727804 -0.661147 -0.672100 0.000000 -56.176700
3.679858 16.833108 -1.852525 -172.201936 77.500811 -153.270558 -13.260025 1.919225 -1.726462 -3.677687 5.559590 -21.554791 1.007763 3.469845 61.177227 3.330332 21.109994 14.178672 7.146100 0.000000 -38.399000 8.138086 0.372387 -0.189099 6.415194 -2.946701 -38.593307 2.322092 -1.475434 26.251719 -0.550708 -2.063536 -0.582835 -0.729300 -0.000000 -56.503500
3.850232 16.888095 -1.873120 -173.970989 76.772989 -154.929838 -13.147223 1.784742 -1.727344 -4.400218 5.607236 -23.417960 1.056647 3.521581 62.472876 3.402716 21.822094 12.720684 7.004300 0.000000 -37.432700 8.275127 0.333421 -0.219330 6.045320 -3.544348 -37.541071 2.308382 -1.381834 25.343139 -0.598316 -2.375282 -0.354470 -0.793000 -0.000000 -56.875200
4.017695 16.945475 -1.896740 -175.528367 76.086330 -156.400895 -13.032904 1.653669 -1.737108 -5.157520 5.670913 -25.182454 1.087146 3.559597 63.446715 3.434449 22.149919 11.382118 6.726800 0.000000 -36.933700 8.404139 0.290051 -0.264231 5.679329 -4.141076 -36.416529 2.296950 -1.283208 24.328839 -0.636647 -2.659519 -0.029062 -0.860400 0.000000 -57.303099
